<?xml version="1.0" encoding="UTF-8"?>
<svg xmlns="http://www.w3.org/2000/svg"
     viewBox="0 0 1719.894 1719.692"
     style="enable-background:new 0 0 1719.894 1719.692;"
     xml:space="preserve">

  <!-- 1. Use currentColor for every stroke -->
  <style>
    path { stroke: currentColor; stroke-miterlimit:10; fill:none; }
  </style>

  <!-- 2. All the original paths – only the IDs are kept (you can delete them if you don’t need them) -->
  <defs>
    <path id="B" d="M859.548 59.846C960.93 240.13 1225.852 349.864 1425.02 294.073c-56.525 201.787 51.573 462.757 234.226 565.473-179.973 101.208-289.922 366.648-234.226 565.473-245.552-68.785-440.479 11.957-565.473 234.227-126.133-224.297-317.682-303.638-565.473-234.227 55.997-199.903-53.278-463.716-234.226-565.473C282.919 734.101 363.107 540.51 294.075 294.073c203.458 56.993 461.906-50.06 565.473-234.227z"/>
    <path id="C" d="M859.548 167.746c87.703 155.959 316.881 250.887 489.176 202.623-48.898 174.561 44.614 400.32 202.624 489.176-155.69 87.552-250.804 317.178-202.624 489.176-212.421-59.504-381.047 10.344-489.176 202.624-109.115-194.033-274.818-262.67-489.176-202.624 48.442-172.931-46.089-401.149-202.623-489.176 192.973-108.519 262.342-275.99 202.623-489.176 176.006 49.303 399.583-43.305 489.176-202.623z"/>
    <path id="D" d="M859.548 275.645c74.024 131.634 267.458 211.757 412.88 171.02-41.272 147.334 37.656 337.882 171.021 412.88-131.407 73.897-211.686 267.708-171.021 412.88-179.29-50.223-321.616 8.73-412.88 171.021-92.096-163.77-231.955-221.702-412.88-171.021 40.886-145.959-38.901-338.582-171.02-412.88 162.875-91.593 221.425-232.944 171.02-412.88 148.555 41.614 337.261-36.551 412.88-171.02z"/>
    <path id="E" d="M859.548 383.544c60.345 107.309 218.034 172.626 336.583 139.417-33.645 120.108 30.697 275.445 139.417 336.583-107.124 60.241-172.569 218.238-139.417 336.583-146.159-40.942-262.184 7.117-336.583 139.417-75.078-133.507-189.092-180.733-336.583-139.417 33.331-118.987-31.712-276.015-139.417-336.583 132.777-74.667 180.507-189.898 139.417-336.583 121.102 33.925 274.937-29.796 336.583-139.417z"/>
    <path id="F" d="M859.548 491.444c46.666 82.984 168.61 133.495 260.287 107.814-26.018 92.882 23.739 213.007 107.814 260.287-82.841 46.586-133.451 168.768-107.814 260.287-113.028-31.662-202.753 5.504-260.287 107.814-58.059-103.244-146.229-139.765-260.287-107.814 25.776-92.016-24.524-213.448-107.814-260.287 102.68-57.742 139.59-146.852 107.814-260.287 93.651 26.234 212.615-23.042 260.287-107.814z"/>
    <path id="G" d="M859.548 599.343c32.987 58.66 119.186 94.365 183.991 76.211-18.392 65.656 16.78 150.57 76.211 183.991-58.559 32.93-94.333 119.298-76.211 183.991-79.897-22.381-143.321 3.891-183.991 76.211-41.041-72.98-103.366-98.796-183.991-76.211 18.22-65.043-17.335-150.882-76.211-183.991 72.582-40.816 98.673-103.806 76.211-183.991 66.2 18.545 150.293-16.287 183.991-76.211z"/>
    <path id="H" d="M859.548 707.243c19.308 34.335 69.763 55.234 107.694 44.608-10.765 38.43 9.822 88.132 44.608 107.694-34.276 19.275-55.216 69.828-44.608 107.694-46.765-13.1-83.889 2.277-107.694 44.608-24.022-42.717-60.502-57.828-107.694-44.608 10.665-38.072-10.147-88.315-44.608-107.694 42.484-23.891 57.756-60.76 44.608-107.694 38.748 10.855 87.969-9.534 107.694-44.608z"/>
    <path id="I" d="M859.548 815.142c5.629 10.01 20.339 16.103 31.398 13.005-3.138 11.204 2.864 25.695 13.005 31.398-9.993 5.62-16.098 20.358-13.005 31.398-13.634-3.819-24.458.664-31.398 13.005-7.004-12.454-17.639-16.859-31.398-13.005 3.109-11.1-2.958-25.748-13.005-31.398 12.386-6.965 16.838-17.714 13.005-31.398 11.297 3.165 25.647-2.779 31.398-13.005z"/>
    <path id="J" d="M859.548 59.846v1599.399"/>
    <path id="K" d="M294.075 294.073L1425.02 1425.018"/>
    <path id="L" d="M1659.247 859.545H59.848"/>
    <path id="M" d="M1425.02 294.073L294.075 1425.018"/>
    <path id="N" d="M860.346 60.448c101.383 180.283 366.305 290.018 565.473 234.226-56.525 201.787 51.573 462.757 234.226 565.473-179.973 101.208-289.922 366.648-234.226 565.473-245.552-68.785-440.479 11.957-565.473 234.226-126.133-224.296-317.682-303.638-565.473-234.226 55.997-199.903-53.278-463.716-234.226-565.473 223.071-125.444 303.259-319.035 234.226-565.473 203.458 56.993 461.907-50.059 565.473-234.226z"/>
    <path id="O" d="M860.346 168.347c87.703 155.959 316.881 250.887 489.176 202.623-48.898 174.561 44.614 400.32 202.624 489.176-155.69 87.552-250.804 317.178-202.624 489.176-212.421-59.504-381.047 10.344-489.176 202.624-109.115-194.033-274.818-262.67-489.176-202.624 48.442-172.931-46.089-401.149-202.623-489.176C361.52 751.628 430.889 584.156 371.17 370.97c176.006 49.304 399.583-43.305 489.176-202.623z"/>
    <path id="P" d="M860.346 384.146c60.345 107.309 218.034 172.626 336.583 139.417-33.645 120.108 30.697 275.445 139.417 336.583-107.124 60.241-172.569 218.238-139.417 336.583-146.159-40.942-262.184 7.117-336.583 139.417-75.078-133.507-189.092-180.733-336.583-139.417 33.331-118.987-31.712-276.015-139.417-336.583 132.777-74.667 180.507-189.898 139.417-336.583 121.103 33.924 274.938-29.796 336.583-139.417z"/>
    <path id="Q" d="M860.346 492.045c46.666 82.984 168.61 133.495 260.287 107.814-26.018 92.882 23.739 213.007 107.814 260.287-82.841 46.586-133.451 168.768-107.814 260.287-113.028-31.662-202.753 5.504-260.287 107.814-58.059-103.244-146.229-139.765-260.287-107.814 25.776-92.015-24.524-213.448-107.814-260.287 102.68-57.742 139.59-146.852 107.814-260.287 93.652 26.235 212.615-23.042 260.287-107.814z"/>
    <path id="R" d="M860.346 599.945c32.987 58.66 119.186 94.365 183.991 76.211-18.392 65.656 16.78 150.57 76.211 183.991-58.559 32.93-94.333 119.298-76.211 183.991-79.897-22.381-143.321 3.89-183.991 76.211-41.041-72.98-103.366-98.796-183.991-76.211 18.22-65.044-17.335-150.882-76.211-183.991 72.582-40.816 98.673-103.806 76.211-183.991 66.2 18.544 150.293-16.288 183.991-76.211z"/>
    <path id="S" d="M860.346 707.844c19.308 34.335 69.763 55.234 107.694 44.608-10.765 38.43 9.822 88.132 44.608 107.694-34.276 19.275-55.216 69.828-44.608 107.694-46.765-13.1-83.889 2.277-107.694 44.608-24.022-42.717-60.502-57.828-107.694-44.608 10.665-38.072-10.147-88.315-44.608-107.694 42.484-23.891 57.756-60.76 44.608-107.694 38.748 10.855 87.97-9.533 107.694-44.608z"/>
    <path id="T" d="M860.346 815.744c5.629 10.01 20.339 16.103 31.398 13.005-3.139 11.204 2.864 25.695 13.005 31.398-9.993 5.62-16.098 20.358-13.005 31.398-13.634-3.819-24.458.664-31.398 13.005-7.004-12.454-17.639-16.859-31.398-13.005 3.109-11.1-2.958-25.748-13.005-31.398 12.386-6.965 16.838-17.714 13.005-31.398 11.297 3.165 25.647-2.779 31.398-13.005z"/>
    <path id="U" d="M860.346 60.448v1599.398"/>
    <path id="V" d="M294.873 294.674L1425.819 1425.62"/>
    <path id="W" d="M1660.045 860.147H60.647"/>
    <path id="X" d="M1425.819 294.674L294.873 1425.62"/>
  </defs>

  <!-- 3. Draw everything exactly as before – only the <use> elements stay -->
  <g>
    <!-- The original groups have been collapsed into a single <g> -->
    <use href="#B"/>
    <use href="#C"/>
    <use href="#D"/>
    <use href="#E"/>
    <use href="#F"/>
    <use href="#G"/>
    <use href="#H"/>
    <use href="#I"/>
    <use href="#J"/>
    <use href="#K"/>
    <use href="#L"/>
    <use href="#M"/>
    <use href="#N"/>
    <use href="#O"/>
    <use href="#P"/>
    <use href="#Q"/>
    <use href="#R"/>
    <use href="#S"/>
    <use href="#T"/>
    <use href="#U"/>
    <use href="#V"/>
    <use href="#W"/>
    <use href="#X"/>
  </g>
</svg>
